<svg xmlns="http://www.w3.org/2000/svg" width="27.4" height="21.307" viewBox="0 0 27.4 21.307">
  <path id="Icon_awesome-home" data-name="Icon awesome-home" d="M13.336,7.781,4.566,15v7.8a.761.761,0,0,0,.761.761l5.33-.014a.761.761,0,0,0,.757-.761V18.233a.761.761,0,0,1,.761-.761H15.22a.761.761,0,0,1,.761.761v4.549a.761.761,0,0,0,.761.763l5.328.015a.761.761,0,0,0,.761-.761V15L14.063,7.781A.58.58,0,0,0,13.336,7.781ZM27.188,12.69,23.212,9.413V2.824a.571.571,0,0,0-.571-.571H19.977a.571.571,0,0,0-.571.571V6.278l-4.259-3.5a2.283,2.283,0,0,0-2.9,0L.206,12.69a.571.571,0,0,0-.076.8l1.213,1.475a.571.571,0,0,0,.8.078L13.336,5.831a.58.58,0,0,1,.728,0l11.189,9.215a.571.571,0,0,0,.8-.076L27.269,13.5a.571.571,0,0,0-.081-.805Z" transform="translate(0.001 -2.254)"/>
</svg>
